<svg width="76" height="24" viewBox="0 0 76 24" fill="none" xmlns="http://www.w3.org/2000/svg">
<path d="M2.52197 23.582C1.53397 23.2873 0.866637 23.0013 0.51997 22.724C0.173304 22.464 -2.97278e-05 22.1 -2.97278e-05 21.632C-2.97278e-05 21.112 0.121304 20.384 0.36397 19.448C0.606637 18.4946 0.918637 17.4373 1.29997 16.276C1.69864 15.1146 2.1493 13.9013 2.65197 12.636C3.15464 11.3706 3.66597 10.1573 4.18597 8.99596C4.70597 7.83462 5.20864 6.77729 5.69397 5.82396C6.19664 4.85329 6.63864 4.09929 7.01997 3.56196L6.83797 2.46996C7.08064 2.46996 7.41864 2.53062 7.85197 2.65196C8.2853 2.77329 8.71864 2.92062 9.15197 3.09396C9.60264 3.26729 9.99264 3.44929 10.322 3.63996C10.6686 3.81329 10.8593 3.96062 10.894 4.08196C10.8073 4.49796 10.738 5.13062 10.686 5.97996C10.634 6.81196 10.608 7.70462 10.608 8.65796C10.608 10.5473 10.6773 12.402 10.816 14.222C10.972 16.0246 11.3186 17.862 11.856 19.734C12.1333 18.3473 12.428 16.9693 12.74 15.6C13.0693 14.2133 13.4073 12.896 13.754 11.648C14.1006 10.3826 14.4473 9.21262 14.794 8.13796C15.1406 7.06329 15.47 6.12729 15.782 5.32996C16.1113 4.51529 16.4146 3.88262 16.692 3.43196C16.9693 2.96396 17.2206 2.71262 17.446 2.67796C17.6366 2.71262 17.8446 2.79062 18.07 2.91196C18.2953 3.01596 18.512 3.14596 18.72 3.30196C18.928 3.45796 19.1186 3.63129 19.292 3.82196C19.4653 4.01262 19.604 4.20329 19.708 4.39396C19.1533 4.61929 18.5986 5.14796 18.044 5.97996C17.5066 6.81196 16.9866 7.82596 16.484 9.02196C15.9986 10.2006 15.5393 11.4833 15.106 12.87C14.69 14.2566 14.3173 15.626 13.988 16.978C13.676 18.3126 13.4246 19.552 13.234 20.696C13.0606 21.84 12.9653 22.7586 12.948 23.452C12.948 23.4866 12.9566 23.5126 12.974 23.53C12.922 23.5473 12.8613 23.556 12.792 23.556C12.74 23.556 12.688 23.556 12.636 23.556C11.8386 23.556 11.128 23.452 10.504 23.244C9.8973 23.0533 9.49864 22.776 9.30797 22.412C8.94397 20.956 8.64064 19.552 8.39797 18.2C8.1553 16.848 7.9473 15.496 7.77397 14.144C7.61797 12.792 7.48797 11.4313 7.38397 10.062C7.2973 8.67529 7.22797 7.22796 7.17597 5.71996C6.84664 6.23996 6.49997 6.92462 6.13597 7.77396C5.77197 8.60596 5.41664 9.52462 5.06997 10.53C4.7233 11.5353 4.3853 12.5926 4.05597 13.702C3.74397 14.8113 3.46664 15.8946 3.22397 16.952C2.9813 18.0093 2.79064 19.0146 2.65197 19.968C2.5133 20.904 2.44397 21.7186 2.44397 22.412C2.44397 22.776 2.44397 23.036 2.44397 23.192C2.4613 23.348 2.4873 23.478 2.52197 23.582ZM20.2345 22.516C19.2465 22.412 18.4578 21.9786 17.8685 21.216C17.2791 20.4533 16.9845 19.4826 16.9845 18.304C16.9845 17.6106 17.0885 16.8913 17.2965 16.146C17.5045 15.4006 17.7991 14.6813 18.1805 13.988C18.5618 13.2773 19.0125 12.61 19.5325 11.986C20.0525 11.362 20.6158 10.8246 21.2225 10.374C22.1758 9.66329 23.0685 9.30796 23.9005 9.30796C24.4551 9.60262 25.0011 10.218 25.5385 11.154C25.6251 11.154 25.7031 11.154 25.7725 11.154C25.8418 11.1366 25.9198 11.128 26.0065 11.128C26.9251 11.128 27.3845 11.9426 27.3845 13.572C27.3845 14.664 27.2025 15.704 26.8385 16.692C26.4918 17.6626 25.9978 18.5466 25.3565 19.344C24.7325 20.1413 23.9785 20.8173 23.0945 21.372C22.2278 21.9093 21.2745 22.2906 20.2345 22.516ZM21.5605 14.326C21.2658 14.7246 20.9885 15.158 20.7285 15.626C20.4685 16.094 20.2431 16.5706 20.0525 17.056C19.8618 17.524 19.7145 17.9833 19.6105 18.434C19.5065 18.8673 19.4545 19.2573 19.4545 19.604C19.4545 20.02 19.5238 20.4186 19.6625 20.8C19.8011 21.1813 19.9571 21.398 20.1305 21.45C20.9105 21.2766 21.6211 20.956 22.2625 20.488C22.9211 20.0026 23.4845 19.4046 23.9525 18.694C24.4378 17.9833 24.8105 17.1773 25.0705 16.276C25.3478 15.3746 25.4865 14.4126 25.4865 13.39C25.4865 12.9393 25.4605 12.584 25.4085 12.324C25.3565 12.064 25.2698 11.8386 25.1485 11.648C24.3858 11.8733 23.7011 12.2373 23.0945 12.74C22.5051 13.2426 21.9938 13.7713 21.5605 14.326ZM28.877 20.54C28.877 20.1933 28.9117 19.708 28.981 19.084C29.0677 18.46 29.1717 17.784 29.293 17.056C29.4317 16.328 29.579 15.5826 29.735 14.82C29.9084 14.0573 30.0817 13.3726 30.255 12.766C30.4804 11.9513 30.827 11.3273 31.295 10.894C31.7804 10.4433 32.3784 10.218 33.089 10.218C33.4704 10.218 33.843 10.2786 34.207 10.4C34.5884 10.5213 34.8137 10.6773 34.883 10.868C34.3804 11.284 33.973 11.804 33.661 12.428C33.3664 13.0346 33.1237 13.6933 32.933 14.404C32.7597 15.0973 32.621 15.8166 32.517 16.562C32.4304 17.29 32.335 17.9746 32.231 18.616C32.803 17.8533 33.3404 17.1686 33.843 16.562C34.363 15.938 34.8224 15.444 35.221 15.08C35.7584 14.5773 36.1224 14.1613 36.313 13.832C36.5037 13.4853 36.6684 13.1126 36.807 12.714C36.911 12.402 37.0324 12.038 37.171 11.622C37.327 11.206 37.5784 10.8246 37.925 10.478C37.9944 10.4606 38.1417 10.452 38.367 10.452C38.5404 10.452 38.7224 10.4606 38.913 10.478C39.121 10.4953 39.3117 10.53 39.485 10.582C39.6584 10.634 39.8057 10.6946 39.927 10.764C40.0484 10.8333 40.1177 10.92 40.135 11.024C39.8577 11.388 39.5977 11.96 39.355 12.74C39.1124 13.5026 38.8957 14.3433 38.705 15.262C38.5144 16.1806 38.341 17.0993 38.185 18.018C38.029 18.9193 37.8904 19.682 37.769 20.306C37.8384 20.2713 37.9944 20.1326 38.237 19.89C38.4797 19.6473 38.7484 19.344 39.043 18.98C39.355 18.616 39.6757 18.2173 40.005 17.784C40.3517 17.3506 40.655 16.926 40.915 16.51C41.2444 16.0073 41.513 15.5393 41.721 15.106C41.9464 14.6553 42.137 14.1786 42.293 13.676C42.4664 13.1733 42.6224 12.6186 42.761 12.012C42.8997 11.388 43.047 10.6513 43.203 9.80196C43.307 9.66329 43.5324 9.55062 43.879 9.46396C44.243 9.35996 44.5724 9.30796 44.867 9.30796C45.127 9.30796 45.3177 9.35129 45.439 9.43796C45.3524 10.4086 45.1877 11.2753 44.945 12.038C44.7197 12.8006 44.4077 13.546 44.009 14.274C43.6104 14.9846 43.1164 15.704 42.527 16.432C41.9377 17.1426 41.2444 17.9226 40.447 18.772C40.1177 19.1186 39.7537 19.5 39.355 19.916C38.9737 20.332 38.5924 20.722 38.211 21.086C37.847 21.4326 37.5004 21.7273 37.171 21.97C36.859 22.2126 36.6164 22.334 36.443 22.334C36.0444 22.334 35.715 22.178 35.455 21.866C35.195 21.554 35.065 21.1553 35.065 20.67C35.065 20.1673 35.0824 19.734 35.117 19.37C35.169 18.9886 35.247 18.59 35.351 18.174C35.455 17.7926 35.533 17.472 35.585 17.212C35.6544 16.952 35.7064 16.7266 35.741 16.536C35.793 16.3453 35.8277 16.1806 35.845 16.042C35.8624 15.9033 35.8797 15.7646 35.897 15.626C35.7584 15.6953 35.5764 15.8426 35.351 16.068C35.1257 16.276 34.8917 16.5273 34.649 16.822C34.4064 17.0993 34.1637 17.3853 33.921 17.68C33.6784 17.9746 33.479 18.226 33.323 18.434C32.9937 18.8846 32.7077 19.2833 32.465 19.63C32.2224 19.9766 31.9884 20.306 31.763 20.618C31.555 20.93 31.347 21.2506 31.139 21.58C30.931 21.892 30.6884 22.23 30.411 22.594C29.8564 22.4206 29.4577 22.1606 29.215 21.814C28.9897 21.4673 28.877 21.0426 28.877 20.54ZM46.6809 11.648C46.5943 11.544 46.5163 11.3273 46.4469 10.998C46.3776 10.6513 46.3429 10.3566 46.3429 10.114C46.7936 10.1486 47.2269 10.1833 47.6429 10.218C48.0589 10.2353 48.4403 10.2526 48.7869 10.27C49.0469 9.74996 49.3243 9.23862 49.6189 8.73596C49.9309 8.21596 50.2256 7.74796 50.5029 7.33196C50.7976 6.89862 51.0663 6.53462 51.3089 6.23996C51.5689 5.94529 51.7683 5.75462 51.9069 5.66796C52.0803 5.66796 52.2969 5.70262 52.5569 5.77196C52.8343 5.82396 53.1116 5.90196 53.3889 6.00596C53.6663 6.09262 53.9176 6.18796 54.1429 6.29196C54.3683 6.39596 54.5243 6.49996 54.6109 6.60396C54.0909 7.26262 53.6403 7.87796 53.2589 8.44996C52.8949 9.00462 52.4963 9.64596 52.0629 10.374C52.4096 10.374 52.7563 10.3653 53.1029 10.348C53.4669 10.3306 53.8309 10.3046 54.1949 10.27C54.2816 10.3566 54.3509 10.4693 54.4029 10.608C54.4549 10.7293 54.4809 10.8593 54.4809 10.998C53.6316 11.31 52.6003 11.4833 51.3869 11.518C50.9536 12.35 50.5636 13.182 50.2169 14.014C49.8876 14.8286 49.6016 15.6173 49.3589 16.38C49.1336 17.1426 48.9516 17.862 48.8129 18.538C48.6916 19.214 48.6309 19.8206 48.6309 20.358C48.6309 21.1206 48.9169 21.5453 49.4889 21.632C50.0089 21.5626 50.5029 21.4326 50.9709 21.242C51.4389 21.0513 51.8549 20.8086 52.2189 20.514C52.3229 20.67 52.3836 20.8 52.4009 20.904C52.2969 21.06 52.1149 21.242 51.8549 21.45C51.6123 21.658 51.3436 21.8573 51.0489 22.048C50.7543 22.256 50.4683 22.4293 50.1909 22.568C49.9136 22.7066 49.7056 22.7846 49.5669 22.802C49.1336 22.7846 48.7003 22.6893 48.2669 22.516C47.8336 22.3426 47.4349 22.126 47.0709 21.866C46.7243 21.606 46.4383 21.32 46.2129 21.008C45.9876 20.6786 45.8749 20.358 45.8749 20.046C45.8749 19.63 45.9269 19.11 46.0309 18.486C46.1523 17.8446 46.3169 17.1513 46.5249 16.406C46.7329 15.6606 46.9756 14.8806 47.2529 14.066C47.5303 13.2513 47.8336 12.4453 48.1629 11.648H46.6809ZM63.5956 10.842C63.5262 11.9166 63.3356 12.844 63.0236 13.624C62.7116 14.3866 62.2609 15.0626 61.6716 15.652C61.0996 16.224 60.3976 16.744 59.5656 17.212C58.7336 17.68 57.7629 18.1306 56.6536 18.564C56.6536 18.668 56.6449 18.7806 56.6276 18.902C56.6276 19.006 56.6276 19.1186 56.6276 19.24C56.6276 19.4653 56.6449 19.6993 56.6796 19.942C56.7142 20.1846 56.7749 20.41 56.8616 20.618C56.9482 20.826 57.0696 20.9993 57.2256 21.138C57.3816 21.2593 57.5809 21.32 57.8236 21.32C58.2916 21.32 58.7509 21.216 59.2016 21.008C59.6522 20.8 60.0769 20.5486 60.4756 20.254C60.8916 19.942 61.2729 19.6126 61.6196 19.266C61.9836 18.902 62.3042 18.5726 62.5816 18.278C62.7549 18.434 62.9022 18.5813 63.0236 18.72C62.2436 19.76 61.3856 20.6266 60.4496 21.32C59.5309 21.996 58.6556 22.4293 57.8236 22.62C56.6276 22.4813 55.6916 22.048 55.0156 21.32C54.3569 20.5746 54.0276 19.682 54.0276 18.642C54.0276 17.9313 54.1229 17.212 54.3136 16.484C54.5216 15.7386 54.7989 15.028 55.1456 14.352C55.5096 13.6586 55.9256 13.0086 56.3936 12.402C56.8789 11.7953 57.3902 11.2666 57.9276 10.816C58.4822 10.3653 59.0456 10.01 59.6176 9.74996C60.2069 9.48996 60.7876 9.35996 61.3596 9.35996C62.1569 9.46396 62.9022 9.95796 63.5956 10.842ZM61.8016 11.7C61.3336 11.7693 60.8482 11.96 60.3456 12.272C59.8429 12.584 59.3662 13 58.9156 13.52C58.4822 14.04 58.0836 14.6466 57.7196 15.34C57.3556 16.0333 57.0696 16.7786 56.8616 17.576C58.2482 16.8826 59.4009 16.0333 60.3196 15.028C61.2382 14.0053 61.7322 12.896 61.8016 11.7ZM70.4673 9.46396C70.8139 9.46396 71.2126 9.56796 71.6633 9.77596C72.114 9.98396 72.5126 10.2526 72.8593 10.582C72.7726 9.88862 72.6599 9.23862 72.5213 8.63196C72.4 8.00796 72.2093 7.36662 71.9493 6.70796C71.7066 6.04929 71.3773 5.32996 70.9613 4.54996C70.5453 3.76996 70.0253 2.87729 69.4013 1.87196C69.4533 1.71596 69.5659 1.53396 69.7393 1.32596C69.9299 1.11796 70.1379 0.927289 70.3633 0.753956C70.6059 0.56329 70.8486 0.398623 71.0913 0.259956C71.3513 0.121289 71.5939 0.0346225 71.8193 -4.37498e-05C72.3046 0.53729 72.7639 1.21329 73.1973 2.02796C73.6306 2.82529 74.0119 3.69196 74.3413 4.62796C74.6706 5.54662 74.9219 6.49996 75.0953 7.48796C75.2859 8.47596 75.3813 9.42062 75.3813 10.322C75.3813 11.2233 75.2773 12.1506 75.0693 13.104C74.8786 14.0573 74.6013 14.9933 74.2373 15.912C73.8906 16.8133 73.4833 17.6713 73.0153 18.486C72.5473 19.3006 72.0359 20.0286 71.4813 20.67C70.9439 21.3113 70.3806 21.8313 69.7913 22.23C69.2019 22.646 68.6126 22.906 68.0233 23.01C66.8273 22.8713 65.9086 22.4813 65.2673 21.84C64.6433 21.216 64.3313 20.3493 64.3313 19.24C64.3313 18.6506 64.4179 18.0093 64.5913 17.316C64.7819 16.6226 65.0246 15.938 65.3193 15.262C65.6313 14.5686 65.9866 13.9013 66.3853 13.26C66.8013 12.6013 67.2346 12.012 67.6853 11.492C68.1533 10.972 68.6213 10.53 69.0893 10.166C69.5573 9.80196 70.0166 9.56796 70.4673 9.46396ZM67.8153 21.97C68.4219 21.762 69.0286 21.3026 69.6353 20.592C70.2419 19.8813 70.7879 19.0493 71.2733 18.096C71.7586 17.1253 72.1486 16.094 72.4433 15.002C72.7553 13.8926 72.9113 12.8266 72.9113 11.804C72.9113 11.5093 72.9113 11.3273 72.9113 11.258C72.9113 11.1886 72.9026 11.1193 72.8853 11.05C72.4693 11.2233 72.0273 11.518 71.5593 11.934C71.0913 12.35 70.6233 12.8353 70.1553 13.39C69.6873 13.9273 69.2453 14.5166 68.8293 15.158C68.4133 15.7993 68.0406 16.4406 67.7113 17.082C67.3819 17.7233 67.1219 18.3386 66.9313 18.928C66.7406 19.5173 66.6453 20.0373 66.6453 20.488C66.6453 21.3546 67.0353 21.8486 67.8153 21.97Z" fill="white"/>
</svg>
